# xmcd
#
# Track frame offsets: 
#        150
#        81190
#        141110
#        199330
#        285370
#
# Disc length: 4126 seconds
#
# Revision: 0
# Processed by: cddbd v1.5.2PL0 Copyright (c) Steve Scherf et al.
# Submitted via: ExactAudioCopy v0.95a5
#
DISCID=42101c05
DTITLE=侯宝林郭启如 - 侯宝林郭启如经典相声
DYEAR=2014
DGENRE=A Cappella
TTITLE0=改行
TTITLE1=规矩套子
TTITLE2=婚姻与迷信
TTITLE3=空城计
TTITLE4=醉酒
EXTD=
EXTT0=
EXTT1=
EXTT2=
EXTT3=
EXTT4=
PLAYORDER=
